<?xml version="1.0" encoding="UTF-8" standalone="no"?>
<!-- Created with Inkscape (http://www.inkscape.org/) -->

<svg
   xmlns:osb="http://www.openswatchbook.org/uri/2009/osb"
   xmlns:dc="http://purl.org/dc/elements/1.1/"
   xmlns:cc="http://creativecommons.org/ns#"
   xmlns:rdf="http://www.w3.org/1999/02/22-rdf-syntax-ns#"
   xmlns:svg="http://www.w3.org/2000/svg"
   xmlns="http://www.w3.org/2000/svg"
   xmlns:sodipodi="http://sodipodi.sourceforge.net/DTD/sodipodi-0.dtd"
   xmlns:inkscape="http://www.inkscape.org/namespaces/inkscape"
   version="1.1"
   id="svg146"
   width="1365.3333"
   height="1365.3333"
   viewBox="0 0 1365.3333 1365.3333"
   sodipodi:docname="logo-v2.svg"
   inkscape:version="0.92.5 (2060ec1f9f, 2020-04-08)">
  <metadata
     id="metadata152">
    <rdf:RDF>
      <cc:Work
         rdf:about="">
        <dc:format>image/svg+xml</dc:format>
        <dc:type
           rdf:resource="http://purl.org/dc/dcmitype/StillImage" />
        <dc:title></dc:title>
      </cc:Work>
    </rdf:RDF>
  </metadata>
  <defs
     id="defs150">
    <linearGradient
       id="linearGradient6267"
       osb:paint="solid">
      <stop
         style="stop-color:#295431;stop-opacity:1;"
         offset="0"
         id="stop6265" />
    </linearGradient>
    <linearGradient
       id="linearGradient6209"
       osb:paint="solid">
      <stop
         style="stop-color:#000000;stop-opacity:1;"
         offset="0"
         id="stop6207" />
    </linearGradient>
    <linearGradient
       id="linearGradient6177"
       osb:paint="solid">
      <stop
         style="stop-color:#000000;stop-opacity:1;"
         offset="0"
         id="stop6175" />
    </linearGradient>
  </defs>
  <sodipodi:namedview
     pagecolor="#ffffff"
     bordercolor="#666666"
     borderopacity="1"
     objecttolerance="10"
     gridtolerance="10"
     guidetolerance="10"
     inkscape:pageopacity="0"
     inkscape:pageshadow="2"
     inkscape:window-width="1848"
     inkscape:window-height="1016"
     id="namedview148"
     showgrid="false"
     inkscape:zoom="0.97779615"
     inkscape:cx="645.19659"
     inkscape:cy="1012.6592"
     inkscape:window-x="72"
     inkscape:window-y="27"
     inkscape:window-maximized="1"
     inkscape:current-layer="svg146" />
  <path
     style="fill:#000000;fill-opacity:0;stroke:#000000;stroke-width:6.43738794;stroke-miterlimit:4;stroke-dasharray:none;stroke-dashoffset:0;stroke-opacity:0"
     d="M 154.93667,1357.0794 C 47.135964,1354.9656 2.3531895,1352.4711 4.9037629,1348.7227 12.061365,1338.2029 768.41856,1329.8015 1061.9177,1336.9817 c 260.2025,6.3656 341.3853,10.9162 279.862,15.6871 -86.855,6.7355 -911.92219,9.8015 -1186.84303,4.4106 z M 548.27443,1222.607 c -8.86733,-8.0548 -51.85638,-124.7785 -71.92823,-195.2997 -28.12299,-98.80934 -21.51102,-141.49396 30.10162,-194.32441 36.52538,-37.3872 41.39798,-59.33493 28.10591,-126.60075 -6.74252,-34.12173 -7.01569,-34.73345 -23.28672,-52.15594 -34.08802,-36.4998 -61.09439,-79.54252 -74.82245,-119.25153 -6.52249,-18.8665 -7.37973,-26.89078 -7.20126,-67.40582 0.18512,-41.69241 1.01625,-48.40716 8.91005,-71.85912 C 471.045,297.99057 560.39219,208.52468 695.05141,138.46991 770.95537,98.981861 865.14907,63.947424 957.49302,40.8571 1014.6663,26.561148 1104.1937,9.7971782 1136.6954,7.3015676 c 37.2207,-2.857953 37.252,-2.785476 31.0412,72.0653564 -15.2824,184.173446 -66.3532,304.624046 -167.2308,394.413776 -76.94178,68.48513 -162.56578,104.66446 -311.31499,131.54257 -102.8569,18.58562 -102.54056,18.40173 -99.21794,57.66645 5.68592,67.1904 33.13111,113.3302 78.56892,132.08599 10.98807,4.53569 27.41148,11.35622 36.4962,15.15672 38.59417,16.14533 73.67638,47.92513 91.34076,82.74252 12.38358,24.40899 23.04083,62.52109 44.20678,158.09015 22.03076,99.4749 23.65409,112.8407 14.60687,120.2778 -7.57483,6.2269 -23.56081,6.0807 -29.87448,-0.273 -2.74898,-2.7666 -9.48438,-21.1985 -14.96738,-40.9598 -10.70686,-38.5877 -41.61183,-144.10076 -49.46148,-168.86707 -5.71559,-18.03293 -11.26482,-23.71542 -23.15927,-23.71542 -21.18706,0 -21.4372,10.13378 -2.12813,86.23099 28.11565,110.8044 36.77483,146.5712 36.77483,151.8993 0,8.4157 -12.18185,20.5626 -20.62175,20.5626 -18.67564,0 -21.4664,-5.9895 -55.54136,-119.2011 -17.59153,-58.4464 -34.02087,-109.84293 -36.50949,-114.21433 -8.08366,-14.19944 -26.8623,-13.98891 -34.89257,0.39124 -4.21827,7.55391 -2.37709,15.88556 28.94463,130.98419 25.3809,93.2677 27.16443,104.6319 17.76146,113.173 -8.70355,7.9059 -20.16014,7.7714 -30.15097,-0.3541 -6.59633,-5.3646 -13.64759,-24.6006 -41.35669,-112.8189 -18.37259,-58.4933 -36.01822,-109.58514 -39.2122,-113.5374 -7.70606,-9.53527 -20.28046,-10.71688 -29.07135,-2.73176 -8.97816,8.1554 -8.93282,8.38908 24.01838,123.77526 28.05132,98.2278 30.67785,113.4244 20.982,121.3949 -7.63485,6.2762 -21.27058,6.0488 -28.45215,-0.4745 z M 530.7154,588.05927 c 21.18826,-133.14706 123.63981,-254.54075 308.11318,-365.07951 57.65574,-34.54801 106.17335,-59.51496 164.05882,-84.42383 64.801,-27.88475 60.6539,-23.41314 -31.15465,33.593 -91.38704,56.74441 -202.52057,136.66614 -202.52057,145.64274 0,2.72858 7.85416,2.02225 31.73753,-2.85414 41.50644,-8.47458 79.89344,-12.62659 116.83037,-12.6366 34.94667,-0.009 34.51449,3.00505 -1.42399,9.93502 -69.63063,13.42676 -138.84926,36.21721 -192.62894,63.42356 -39.70535,20.08642 -40.95157,21.22411 -67.61452,61.72851 -26.37863,40.07266 -42.367,71.76684 -52.97134,105.00644 -9.87951,30.9673 -10.34516,41.58622 -1.82411,41.58622 9.31991,0 124.26446,-22.14485 158.40184,-30.51714 230.51376,-56.53453 353.13498,-214.37455 372.04738,-478.905373 1.9969,-27.930233 1.6768,-31.024782 -3.3928,-32.791849 -8.1613,-2.844737 -81.4425,8.733302 -137.84201,21.778323 C 751.09901,118.9245 566.40989,226.74537 496.79874,351.78412 c -22.32932,40.10904 -29.28307,66.71861 -29.50616,112.91039 -0.21359,44.20702 4.2349,65.61892 20.42667,98.32044 11.46985,23.16478 31.32336,50.2439 35.83547,48.87768 1.9461,-0.58924 5.16855,-11.31426 7.16068,-23.83336 z"
     id="path156"
     inkscape:connector-curvature="0" />
</svg>
