<svg xmlns="http://www.w3.org/2000/svg" viewBox="0 0 192 192">
  <rect width="192" height="192" rx="24" fill="#2D5A3D"/>
  <g transform="translate(10, 10) scale(0.126)" fill="#ffffff" fill-rule="nonzero" opacity="0.95">
    <path d="m 165.01851,1344.4318 c -105.415783,-2.0671 -149.207849,-4.5065 -146.713827,-8.1722 6.99925,-10.2874 746.624157,-18.5032 1033.630517,-11.4817 254.4461,6.225 333.8329,10.675 273.6709,15.3408 -84.9339,6.5867 -891.74852,9.5851 -1160.58759,4.3131 z m 384.6364,-131.5026 c -8.67135,-7.8768 -50.70931,-122.0225 -70.33712,-190.9862 -27.50098,-96.62704 -21.03524,-138.36893 29.43572,-190.03258 35.71732,-36.56145 40.48207,-58.02448 27.48419,-123.80468 -6.59334,-33.36807 -6.86044,-33.96631 -22.77167,-51.00401 -33.33383,-35.69364 -59.74289,-77.78573 -73.16716,-116.6177 -6.37821,-18.44977 -7.21653,-26.29677 -7.04195,-65.91716 0.17969,-40.77163 0.99383,-47.33794 8.713,-70.27199 C 474.13394,308.73402 561.50444,221.24403 693.1848,152.73637 767.40958,114.12055 859.51936,79.859955 949.8206,57.279435 1005.729,43.29937 1093.276,26.905671 1125.0584,24.465053 c 36.3976,-2.794791 36.4279,-2.723956 30.3544,70.47374 -14.9441,180.105757 -64.8852,297.896127 -163.53087,385.702747 -75.23985,66.97252 -158.96947,102.35287 -304.4281,128.63733 -100.58149,18.17515 -100.27216,17.99533 -97.02298,56.39283 5.55997,65.70644 32.39819,110.8272 76.83066,129.16875 10.74517,4.43553 26.80515,11.10542 35.68891,14.822 37.74042,15.78872 72.04655,46.86664 89.32001,80.91506 12.10971,23.8699 22.53122,61.14025 43.22881,154.59859 21.5435,97.2778 23.13078,110.3485 14.28388,117.6213 -7.40725,6.0895 -23.03963,5.9464 -29.21354,-0.267 -2.68831,-2.7055 -9.27468,-20.7303 -14.63646,-40.0551 -10.46991,-37.7354 -40.69119,-140.91816 -48.36721,-165.13749 -5.58912,-17.63465 -11.01561,-23.19164 -22.647,-23.19164 -20.71839,0 -20.96299,9.90996 -2.08103,84.32653 27.49373,108.3571 35.96136,143.334 35.96136,148.5445 0,8.2297 -11.91234,20.1083 -20.16558,20.1083 -18.26243,0 -20.99149,-5.8571 -54.31269,-116.5684 -17.20241,-57.1555 -33.2682,-107.41691 -35.70174,-111.69174 -7.90492,-13.88585 -26.26818,-13.67996 -34.12068,0.3826 -4.12498,7.38707 -2.32461,15.53469 28.3043,128.09134 24.81945,91.2078 26.56346,102.321 17.36855,110.6733 -8.51109,7.7315 -19.71425,7.5998 -29.48409,-0.3462 -6.45022,-5.2461 -13.3457,-24.0573 -40.44179,-110.3271 -17.96612,-57.2015 -35.2212,-107.16491 -38.34462,-111.02989 -7.53551,-9.32468 -19.83188,-10.48019 -28.4282,-2.67143 -8.77965,7.97529 -8.73534,8.20381 23.48696,121.04152 27.43075,96.0585 29.99921,110.9194 20.51783,118.7138 -7.46589,6.1375 -20.80006,5.9152 -27.82258,-0.4641 z M 532.48415,592.39616 c 20.7195,-130.2063 120.90466,-248.91899 301.29708,-357.01627 56.38023,-33.78498 103.82443,-58.20065 160.42948,-82.55941 63.36729,-27.26887 59.31209,-22.8959 -30.46548,32.85106 -89.36533,55.49126 -198.04037,133.64777 -198.04037,142.42615 0,2.6683 7.68049,1.97767 31.03546,-2.791 40.58813,-8.28739 78.12591,-12.3477 114.24573,-12.35762 34.1736,0 33.75115,2.93878 -1.39242,9.71568 -68.09025,13.13026 -135.77762,35.41734 -188.36746,62.02275 -38.82705,19.64281 -40.04563,20.75528 -66.11871,60.36511 -25.79513,39.18756 -41.42986,70.18175 -51.79963,102.68729 -9.6609,30.28337 -10.11634,40.66775 -1.78369,40.66775 9.11375,0 121.51545,-21.65575 154.89753,-29.84313 225.41439,-55.28597 345.32303,-209.63987 363.81713,-468.328193 1.9525,-27.313344 1.6394,-30.33961 -3.318,-32.06767 -7.9809,-2.78193 -79.6407,8.540375 -134.79257,21.297283 -234.13576,54.15678 -414.73915,159.59628 -482.81032,281.87345 -21.8354,39.2232 -28.63525,65.24508 -28.85349,110.41668 -0.20888,43.23059 4.14126,64.16969 19.97489,96.14892 11.21604,22.65316 30.63028,49.13419 35.04263,47.79815 1.9031,-0.57621 5.0541,-11.06437 7.00221,-23.30698 z"/>
  </g>
</svg>
